<svg width="1024" height="1024" xmlns="http://www.w3.org/2000/svg" xmlns:svg="http://www.w3.org/2000/svg" class="icon">
 <defs>
  <style type="text/css"/>
 </defs>
 <g>
  <title>Layer 1</title>
  <ellipse stroke="#000000" ry="500" rx="500" id="svg_6" cy="515.999987" cx="509.999963" stroke-width="5" fill="#070707"/>
  <path id="svg_2" fill="#FFFFFF" d="m787,470.3s45.6,-284.9 -270.2,-350.6s-292.2,301.4 -138.8,382.6s297.6,163.4 142.4,154.3c-155.2,-9.2 -213.6,-67.6 -213.6,-67.6s-157,219.1 84,323.2s469.3,-78.5 321.4,-314.1c0,0 -82.6,-131 -194.9,-177.6s54.7,-53.8 269.7,49.8z"/>
  <path id="svg_3" fill="#E6E6E6" d="m496.6,218.7c19.2,-40.7 53.9,-61.2 117.9,-30.9s110.1,106 90.9,146.6s-96.5,30.9 -160.5,0.6c-64.1,-30.3 -67.6,-75.6 -48.3,-116.3z"/>
  <path id="svg_4" fill="#4D4D4D" d="m638.8,297.7m-55.9,0a55.9,55.9 0 1 0 111.8,0a55.9,55.9 0 1 0 -111.8,0z"/>
  <path id="svg_5" d="m652,308.1m-34.2,0a34.2,34.2 0 1 0 68.4,0a34.2,34.2 0 1 0 -68.4,0z"/>
 </g>
</svg>